<svg width="14" height="14" viewBox="0 0 14 14" fill="none" xmlns="http://www.w3.org/2000/svg">
<g opacity="0.8">
<path fill-rule="evenodd" clip-rule="evenodd" d="M0 0.488371C0 0.218651 0.223348 0 0.498861 0H1.65622C2.44746 0 3.10587 0.520996 3.31439 1.21767H11.6268C13.0256 1.21767 14.0942 2.33586 13.9934 3.70125L13.6342 8.58482L13.6341 8.5872C13.5411 9.77034 12.4886 10.7376 11.2676 10.7376H4.18378C2.8025 10.7376 1.71305 9.58304 1.83093 8.2351C1.83095 8.23488 1.83091 8.23531 1.83093 8.2351L2.38295 1.75013C2.4184 1.33756 2.08187 0.976741 1.65622 0.976741H0.498861C0.223348 0.976741 0 0.75809 0 0.488371ZM3.34632 2.19441L2.82516 8.3168L2.82505 8.31804C2.75709 9.09261 3.38358 9.76089 4.18378 9.76089H11.2676C11.9619 9.76089 12.5852 9.19208 12.6392 8.51338C12.6392 8.51302 12.6393 8.51265 12.6393 8.51229L12.9983 3.63097C13.0571 2.8345 12.4496 2.19441 11.6268 2.19441H3.34632Z" fill="black"/>
<path fill-rule="evenodd" clip-rule="evenodd" d="M9.97678 12.3727C9.7931 12.3727 9.64421 12.5185 9.64421 12.6983C9.64421 12.8781 9.7931 13.0239 9.97678 13.0239C10.1605 13.0239 10.3094 12.8781 10.3094 12.6983C10.3094 12.5185 10.1605 12.3727 9.97678 12.3727ZM8.64648 12.6983C8.64648 11.9791 9.24208 11.396 9.97678 11.396C10.7115 11.396 11.3071 11.9791 11.3071 12.6983C11.3071 13.4176 10.7115 14.0006 9.97678 14.0006C9.24208 14.0006 8.64648 13.4176 8.64648 12.6983Z" fill="black"/>
<path fill-rule="evenodd" clip-rule="evenodd" d="M4.65647 12.3727C4.47279 12.3727 4.32389 12.5185 4.32389 12.6983C4.32389 12.8781 4.47279 13.0239 4.65647 13.0239C4.84014 13.0239 4.98904 12.8781 4.98904 12.6983C4.98904 12.5185 4.84014 12.3727 4.65647 12.3727ZM3.32617 12.6983C3.32617 11.9791 3.92177 11.396 4.65647 11.396C5.39117 11.396 5.98676 11.9791 5.98676 12.6983C5.98676 13.4176 5.39117 14.0006 4.65647 14.0006C3.92177 14.0006 3.32617 13.4176 3.32617 12.6983Z" fill="black"/>
<path fill-rule="evenodd" clip-rule="evenodd" d="M4.65625 4.39438C4.65625 4.12466 4.8796 3.90601 5.15511 3.90601H13.1369C13.4124 3.90601 13.6357 4.12466 13.6357 4.39438C13.6357 4.6641 13.4124 4.88275 13.1369 4.88275H5.15511C4.8796 4.88275 4.65625 4.6641 4.65625 4.39438Z" fill="black"/>
</g>
</svg>
